<svg width="24" height="24" viewBox="0 0 24 24" fill="none" xmlns="http://www.w3.org/2000/svg">
<path fill-rule="evenodd" clip-rule="evenodd" d="M7.51707 8.57141L6.26351 5.84997C5.99565 5.26925 5.57137 4.77531 5.03888 4.42283L3.81315 3.6139C3.56565 3.45105 3.41993 3.17033 3.42852 2.87355C3.43816 2.57677 3.59994 2.3057 3.85709 2.15676L7.394 0.114616C7.65114 -0.0332403 7.96614 -0.0385971 8.22865 0.101759C8.49008 0.243187 8.65936 0.508909 8.67758 0.805687L8.76543 2.27142C8.80293 2.90998 9.01936 3.52499 9.38899 4.04572L12.5894 8.57144L7.51707 8.57141ZM0 12V10.2857C0 9.81211 0.383561 9.42855 0.857143 9.42855H23.1429C23.6164 9.42855 24 9.81211 24 10.2857V12H0ZM24 12.8571V15.4286C24 18.2688 21.6975 20.5714 18.8571 20.5714H5.14286C2.30263 20.5714 0 18.2689 0 15.4286V12.8571H24ZM18.8571 21.4286V22.2857C18.8571 22.74 18.6761 23.1761 18.3547 23.4975C18.0332 23.8189 17.5972 24 17.1429 24H6.85714C6.40287 24 5.96678 23.8189 5.64535 23.4975C5.32391 23.1761 5.14286 22.74 5.14286 22.2857V21.4286H18.8571Z" fill="#1F61E1"/>
</svg>
