<svg width="85" height="70" viewBox="0 0 85 70" fill="none" xmlns="http://www.w3.org/2000/svg">
<path d="M62.4487 19.1968C62.4487 29.8022 53.857 38.3936 43.2512 38.3936C32.6454 38.3936 24.0537 29.8022 24.0537 19.1968C24.0537 8.59135 32.6454 0 43.2512 0C53.857 0 62.4487 8.59135 62.4487 19.1968Z" fill="white"/>
<path d="M40.9342 6.57922C40.2418 6.57922 39.455 6.41138 38.6158 6.07569C38.3011 5.94981 37.9864 5.83442 37.6402 5.71903C36.3079 5.28894 34.7133 4.89032 32.8985 4.53366C32.7621 4.50219 32.6572 4.39729 32.6257 4.26092C32.5943 4.12455 32.6572 3.98818 32.7726 3.90426C35.8673 1.77478 39.497 0.652344 43.263 0.652344C44.952 0.652344 46.6305 0.883125 48.246 1.3342C48.3824 1.37616 48.4873 1.48106 48.5083 1.62792C48.5292 1.77478 48.4768 1.91115 48.3509 1.99507C46.1794 3.52661 44.0498 5.10012 43.0847 5.86589C42.4868 6.33795 41.7629 6.57922 40.9342 6.57922Z" fill="#00BBFA"/>
<path d="M43.2627 0.891249C44.9621 0.891249 46.6196 1.12203 48.1827 1.56261C48.2981 1.59408 48.3191 1.75143 48.2247 1.81437C46.1056 3.30396 43.9446 4.89845 42.948 5.69569C42.392 6.13627 41.7206 6.35656 40.9443 6.35656C40.2729 6.35656 39.5281 6.18872 38.7098 5.86353C38.3951 5.73765 38.0804 5.62226 37.7237 5.50687C36.2236 5.01384 34.5556 4.6257 32.9506 4.311C32.8562 4.29002 32.8247 4.16414 32.9086 4.1012C35.846 2.07662 39.4127 0.891249 43.2627 0.891249ZM43.2627 0.429688C39.4442 0.429688 35.7725 1.5731 32.6359 3.72356C32.4471 3.85993 32.3526 4.09071 32.3946 4.311C32.4471 4.54178 32.6254 4.70963 32.8457 4.76208C34.6501 5.10825 36.2341 5.50687 37.5559 5.93696C37.8916 6.04186 38.2063 6.15725 38.521 6.28313C39.3917 6.6293 40.1995 6.80763 40.9233 6.80763C41.8045 6.80763 42.5703 6.55587 43.2102 6.05235C44.1754 5.28658 46.2944 3.71307 48.4659 2.19202C48.6548 2.05564 48.7492 1.82486 48.7177 1.59408C48.6758 1.3633 48.5079 1.17448 48.2876 1.11154C46.6721 0.660468 44.9726 0.429688 43.2627 0.429688Z" fill="white"/>
<path d="M43.649 15.3367C42.7888 15.3367 42.1699 15.1374 41.0369 14.7073C39.799 14.2352 36.3372 12.7561 32.9907 11.3295L32.7704 11.2351C31.1969 10.5637 29.6023 9.88184 28.2596 9.31538C28.1232 9.26293 28.0288 9.14754 27.9868 9.00068C27.9448 8.8643 27.9658 8.70695 28.0497 8.59156C28.7841 7.53207 29.6338 6.55649 30.5779 5.67533C30.6199 5.63337 30.6828 5.61239 30.7353 5.61239C30.7458 5.61239 30.7563 5.61239 30.7773 5.61239C33.3159 6.0215 35.477 6.51453 37.1974 7.081C37.5331 7.1859 37.8163 7.2908 38.0891 7.40619C39.0962 7.8153 40.0613 8.01461 40.9425 8.01461C42.0964 8.01461 43.114 7.66844 43.9742 6.99708C45.5688 5.73827 48.2019 3.82908 50.5098 2.24509C50.5517 2.21362 50.5937 2.20312 50.6356 2.20312C50.6671 2.20312 50.6986 2.21362 50.7301 2.22411C53.2163 3.32556 55.4822 4.99348 57.2761 7.06002C57.381 7.17541 57.402 7.33276 57.3495 7.47962C57.2971 7.62648 57.1607 7.72089 57.0138 7.74187C55.2409 7.94118 51.8211 8.57058 48.8418 10.6057C47.6039 11.4449 46.5654 12.6093 45.7366 14.0359C45.6212 14.2352 45.0128 15.2108 44.1001 15.3157H44.0791C43.9218 15.3367 43.7749 15.3367 43.649 15.3367Z" fill="#1F61E1"/>
<path d="M50.6353 2.43129C53.1321 3.53274 55.3351 5.16919 57.0974 7.20426C57.1919 7.31965 57.1289 7.48749 56.982 7.49798C54.9889 7.71827 51.6529 8.38963 48.7051 10.3932C47.4463 11.2534 46.3762 12.4388 45.5265 13.8969C45.2852 14.3165 44.7397 14.9879 44.0683 15.0718H44.0578C43.911 15.0823 43.7746 15.0823 43.6487 15.0823C42.8095 15.0823 42.1905 14.8725 41.1205 14.4634C39.8826 13.9913 36.3998 12.5017 33.0324 11.0646C31.4064 10.3723 29.7489 9.65893 28.3537 9.07149C28.2068 9.00855 28.1543 8.83021 28.2488 8.69384C28.9831 7.64484 29.8118 6.67976 30.7455 5.80908C32.8016 6.14476 35.1305 6.61682 37.1342 7.2672C37.4489 7.3721 37.7321 7.477 38.0049 7.5819C39.1273 8.03297 40.1029 8.2113 40.9527 8.2113C42.3899 8.2113 43.4284 7.69729 44.1313 7.14132C45.8307 5.81957 48.5058 3.88941 50.6353 2.43129ZM50.6353 1.96973C50.5409 1.96973 50.457 2.0012 50.3731 2.05365C48.0547 3.63764 45.4216 5.54683 43.8166 6.80564C42.9983 7.44553 42.0332 7.77072 40.9212 7.77072C40.0715 7.77072 39.1378 7.57141 38.1517 7.17279C37.879 7.06789 37.5852 6.96299 37.2495 6.8476C35.5081 6.28114 33.3366 5.7881 30.7874 5.3685C30.7665 5.3685 30.735 5.35801 30.714 5.35801C30.5986 5.35801 30.4832 5.39997 30.3993 5.48389C29.4447 6.37555 28.5845 7.3721 27.8396 8.44208C27.7137 8.62041 27.6823 8.84071 27.7347 9.05051C27.7977 9.26031 27.9445 9.42815 28.1439 9.51207C29.4866 10.0785 31.0917 10.7604 32.6338 11.4213L32.8226 11.5052L32.8855 11.5366C36.232 12.9633 39.6938 14.4424 40.9317 14.9144C41.9807 15.3131 42.6731 15.5543 43.6277 15.5543C43.7746 15.5543 43.911 15.5438 44.0683 15.5334H44.0788H44.0893C44.8866 15.4389 45.5475 14.7466 45.9042 14.1382C46.7119 12.7325 47.74 11.6101 48.9464 10.7814C51.8837 8.77777 55.2616 8.15885 57.0135 7.95954C57.2548 7.92807 57.4541 7.78121 57.538 7.55043C57.622 7.33014 57.58 7.07838 57.4226 6.88956C55.6078 4.80204 53.3209 3.10265 50.8032 1.99071C50.7612 1.99071 50.6983 1.96973 50.6353 1.96973Z" fill="white"/>
<path d="M47.4691 14.6186C47.3957 14.6186 47.3223 14.5766 47.2698 14.5137C47.2174 14.4402 47.2174 14.3353 47.2698 14.2619C47.9307 13.2444 48.7385 12.4052 49.6511 11.7863C53.4487 9.19522 58.1484 9.07983 58.6624 9.06934C58.7358 9.06934 58.8093 9.1113 58.8617 9.17424C59.7744 10.6009 60.4982 12.1429 60.9913 13.7584C61.0333 13.9157 61.0123 14.0731 60.9179 14.199C60.8234 14.3248 60.6766 14.3983 60.5192 14.3983C60.4982 14.3983 60.4773 14.3983 60.4563 14.3983C58.8932 14.1885 57.1203 14.0836 55.2111 14.0836C52.1059 14.0836 49.1896 14.3563 47.5006 14.6186C47.4901 14.6186 47.4796 14.6186 47.4691 14.6186Z" fill="#00BBFA"/>
<path d="M58.6643 9.30629C59.556 10.7015 60.2693 12.212 60.7624 13.8275C60.8148 13.9953 60.6889 14.1737 60.5106 14.1737C60.5001 14.1737 60.4896 14.1737 60.4791 14.1737C58.7482 13.9429 56.9334 13.859 55.2129 13.859C51.9399 13.859 48.9711 14.1632 47.471 14.394C48.1214 13.3974 48.8977 12.5897 49.7789 11.9812C53.5135 9.43217 58.1293 9.31678 58.6643 9.30629ZM58.6643 8.84473C58.1293 8.84473 53.3666 8.97061 49.5166 11.6036C48.583 12.2435 47.7542 13.1037 47.0724 14.1527C46.9779 14.31 46.9675 14.4989 47.0724 14.6562C47.1563 14.7926 47.3031 14.866 47.4605 14.866C47.4815 14.866 47.5025 14.866 47.5339 14.866C49.139 14.6247 52.1078 14.3415 55.2129 14.3415C57.1117 14.3415 58.8636 14.4464 60.4267 14.6457C60.4581 14.6457 60.4896 14.6562 60.5211 14.6562C60.7519 14.6562 60.9617 14.5513 61.0981 14.3625C61.2344 14.1737 61.2764 13.9324 61.2135 13.7121C60.7099 12.0757 59.9861 10.5126 59.0629 9.07551C58.9685 8.92864 58.8216 8.84473 58.6643 8.84473Z" fill="white"/>
<path d="M37.9235 36.936C37.9025 36.936 37.8815 36.936 37.8605 36.9255C32.395 35.2681 27.9366 31.0826 25.9119 25.7327C25.8804 25.6487 25.9014 25.5438 25.9644 25.4809C26.0063 25.4389 26.0693 25.418 26.1217 25.418C26.1532 25.418 26.1847 25.4285 26.2057 25.4389C26.2791 25.4704 26.3525 25.5019 26.426 25.5334C28.8178 26.6138 35.175 29.1314 42.6966 29.1314C43.0743 29.1314 43.4519 29.121 43.8191 29.1105C44.0184 29.1105 44.1758 29.2049 44.2702 29.3622C44.3646 29.5196 44.3541 29.7084 44.2702 29.8657C43.5358 31.1036 41.7525 33.6527 38.0598 36.8731C38.0389 36.9255 37.9759 36.936 37.9235 36.936Z" fill="#1F61E1"/>
<path d="M26.1299 25.6559C26.2033 25.6874 26.2767 25.7188 26.3502 25.7503C28.9098 26.9147 35.2251 29.3694 42.7257 29.3694C43.0929 29.3694 43.4705 29.3589 43.8482 29.3484H43.8587C44.0685 29.3484 44.1944 29.5792 44.0895 29.7575C43.3971 30.9219 41.6347 33.4815 37.9316 36.7019C32.4871 35.055 28.123 30.9324 26.1299 25.6559ZM26.1299 25.1943C26.0145 25.1943 25.8991 25.2363 25.8047 25.3202C25.6683 25.4461 25.6263 25.6454 25.6893 25.8132C27.7349 31.2261 32.2563 35.4641 37.7847 37.1425C37.8267 37.153 37.8791 37.1635 37.9211 37.1635C38.0365 37.1635 38.1414 37.1215 38.2253 37.0481C41.9389 33.8067 43.7328 31.2366 44.4776 29.9883C44.614 29.7575 44.614 29.4848 44.4881 29.254C44.3622 29.0232 44.1105 28.8868 43.8587 28.8868H43.8377C43.4705 28.8973 43.1034 28.9078 42.7257 28.9078C35.246 28.9078 28.9098 26.4007 26.539 25.3307C26.4656 25.2992 26.3816 25.2678 26.3082 25.2258C26.2453 25.2048 26.1823 25.1943 26.1299 25.1943Z" fill="white"/>
<path d="M43.2621 37.7337C42.2235 37.7337 41.1745 37.6497 40.1569 37.4714C40.073 37.4609 39.9996 37.398 39.9786 37.3141C39.9576 37.2301 39.9786 37.1357 40.0415 37.0728C44.6363 32.8348 45.9371 29.8556 45.9896 29.7298L46.0211 29.6668C46.0315 29.6459 47.3953 25.8485 51.0145 23.3833C53.3644 21.7888 57.036 21.4846 59.0187 21.4531C59.1236 21.4531 59.218 21.4531 59.3229 21.4531C60.0153 21.4531 60.7182 21.4951 61.4105 21.579C61.4735 21.5895 61.5259 21.621 61.5679 21.6629C61.6098 21.7154 61.6203 21.7783 61.6098 21.8413C60.9804 26.2156 58.7984 30.2228 55.452 33.1495C52.074 36.1077 47.7415 37.7337 43.2621 37.7337Z" fill="#FFBE0F"/>
<path d="M59.3112 21.6911C59.993 21.6911 60.6854 21.733 61.3778 21.8169C60.1084 30.681 52.4819 37.4996 43.2608 37.4996C42.2118 37.4996 41.1942 37.4156 40.1976 37.2478C44.8029 32.9993 46.1247 30.0097 46.2086 29.8313L46.2296 29.7789C46.2401 29.7369 47.5934 26.0025 51.1391 23.6002C53.4365 22.0372 57.0662 21.7435 59.0174 21.712C59.1119 21.6911 59.2063 21.6911 59.3112 21.6911ZM59.3112 21.2295C59.2063 21.2295 59.1119 21.2295 59.0069 21.2295C57.0033 21.2715 53.2792 21.5757 50.8769 23.2016C47.3311 25.6038 45.9149 29.2858 45.7995 29.5901L45.7785 29.632C45.7261 29.7579 44.4462 32.6951 39.8829 36.9016C39.757 37.017 39.7046 37.2058 39.757 37.3737C39.8095 37.5415 39.9458 37.6674 40.1242 37.6989C41.1522 37.8772 42.2118 37.9611 43.2713 37.9611C47.8137 37.9611 52.1987 36.3142 55.6185 33.335C59.0069 30.3768 61.2204 26.3172 61.8499 21.8904C61.8708 21.7645 61.8394 21.6386 61.7554 21.5442C61.682 21.4498 61.5666 21.3764 61.4407 21.3659C60.7274 21.2715 60.014 21.2295 59.3112 21.2295Z" fill="white"/>
<path d="M42.0894 27.7051C35.1133 27.5687 29.2387 25.2294 27.0357 24.2329C26.9832 24.2119 26.9308 24.1909 26.8783 24.1699C25.7768 23.6874 25.0005 22.6593 24.8537 21.4635C24.7592 20.7187 24.7173 19.9529 24.7173 19.1976C24.7173 16.1765 25.4621 13.1763 26.8678 10.5224C26.9098 10.4489 26.9937 10.3965 27.0671 10.3965C27.0986 10.3965 27.1301 10.407 27.1616 10.4175C28.6827 11.0574 30.6444 11.8966 32.3648 12.6309C35.5854 14.0051 39.236 15.5681 40.5159 16.0611C41.7747 16.5332 42.9496 16.7744 44.0092 16.7744C45.1422 16.7744 45.9604 16.5017 46.5584 16.3129L46.6213 16.2919C46.7577 16.2499 46.8731 16.208 46.978 16.1765C47.6389 15.9982 51.1532 15.5261 55.1815 15.5261C57.5104 15.5261 59.5875 15.6835 61.3499 15.9982C61.4443 16.0191 61.5177 16.0926 61.5387 16.187C61.6961 17.1731 61.78 18.1906 61.78 19.1976C61.78 19.2815 61.78 19.376 61.78 19.4599C61.7695 19.8165 61.4758 20.1103 61.1191 20.1103C61.0981 20.1103 61.0771 20.1103 61.0561 20.1103C60.4687 20.0578 59.8812 20.0263 59.3042 20.0263C59.1888 20.0263 59.0734 20.0263 58.9685 20.0263C56.3564 20.0788 52.7058 20.4879 50.188 22.2083C48.9187 23.0685 47.7753 24.1594 46.7787 25.4497C45.6981 26.8659 43.9777 27.7051 42.1839 27.7051H42.0894Z" fill="#1F61E1"/>
<path d="M27.0745 10.6247C28.5642 11.2541 30.442 12.0513 32.2778 12.838C35.6662 14.2857 39.1595 15.7858 40.4393 16.2683C41.8975 16.8243 43.062 17.0026 44.0166 17.0026C45.1915 17.0026 46.0203 16.7299 46.6392 16.5305C46.7965 16.4781 46.9329 16.4361 47.0483 16.4047C47.7092 16.2263 51.2235 15.7648 55.1889 15.7648C57.224 15.7648 59.3746 15.8907 61.3153 16.2263C61.4727 17.1914 61.5566 18.188 61.5566 19.195C61.5566 19.2789 61.5566 19.3733 61.5566 19.4573C61.5566 19.688 61.3573 19.8769 61.1265 19.8769C61.116 19.8769 61.095 19.8769 61.0845 19.8769C60.4866 19.8244 59.8991 19.7929 59.3116 19.7929C59.1962 19.7929 59.0808 19.7929 58.9654 19.7929C56.3219 19.8454 52.6292 20.265 50.0591 22.0063C48.5904 23.0029 47.4574 24.1883 46.5972 25.3002C45.5482 26.6744 43.9117 27.4612 42.1808 27.4612C42.1493 27.4612 42.1073 27.4612 42.0759 27.4612C35.2256 27.3353 29.4873 25.0799 27.1165 24.0099C27.064 23.989 27.0116 23.968 26.9591 23.9365C25.9311 23.4854 25.2072 22.5308 25.0709 21.4189C24.9764 20.6846 24.9345 19.9398 24.9345 19.1845C24.9555 16.1005 25.7213 13.1842 27.0745 10.6247ZM27.0745 10.1631C26.9067 10.1631 26.7493 10.2575 26.6654 10.4044C25.2387 13.0898 24.4834 16.1319 24.4834 19.195C24.4834 19.9608 24.5254 20.7371 24.6198 21.4923C24.7771 22.7616 25.6059 23.8736 26.7808 24.3771C26.8333 24.3981 26.8752 24.4191 26.9277 24.44C29.1411 25.4471 35.0577 27.7969 42.0654 27.9332C42.1073 27.9332 42.1388 27.9332 42.1808 27.9332C44.0481 27.9332 45.8419 27.0521 46.9644 25.5834C47.94 24.3142 49.073 23.2337 50.3108 22.3945C52.7866 20.7161 56.3848 20.307 58.9654 20.2545C59.0808 20.2545 59.1857 20.2545 59.3011 20.2545C59.8676 20.2545 60.4551 20.286 61.0321 20.3384C61.0635 20.3384 61.0845 20.3384 61.116 20.3384C61.5985 20.3384 61.9972 19.9398 62.0077 19.4573C62.0077 19.3629 62.0077 19.2789 62.0077 19.1845C62.0077 18.1565 61.9237 17.1285 61.7559 16.1319C61.7244 15.9431 61.5776 15.7858 61.3782 15.7543C59.6054 15.4396 57.5178 15.2822 55.1679 15.2822C51.1186 15.2822 47.5728 15.7543 46.9015 15.9431C46.7861 15.9746 46.6707 16.0165 46.5343 16.0585L46.4713 16.0795C45.8944 16.2683 45.0971 16.5305 43.9956 16.5305C42.957 16.5305 41.8136 16.2893 40.5757 15.8277C39.2959 15.3452 35.6452 13.7822 32.4247 12.408C30.7042 11.6737 28.7425 10.8345 27.2214 10.1946C27.2004 10.1736 27.1375 10.1631 27.0745 10.1631Z" fill="white"/>
<path d="M31.2297 69.432C30.9779 69.432 30.7681 69.2222 30.7681 68.9704V67.869C29.4987 68.8655 28.0511 69.3691 26.4565 69.3691C25.0508 69.3691 23.729 68.96 22.5436 68.1522C21.3582 67.355 20.414 66.243 19.7217 64.8583C19.0293 63.4842 18.6831 61.9631 18.6831 60.3371C18.6831 57.8615 19.4384 55.7215 20.9385 53.9592C22.4492 52.1759 24.306 51.2737 26.467 51.2737C28.0615 51.2737 29.5092 51.7773 30.7786 52.7738V50.4136C30.7786 47.5812 33.0865 45.2734 35.9189 45.2734C36.1707 45.2734 36.3805 45.4832 36.3805 45.735V64.2814C36.37 67.1242 34.0621 69.432 31.2297 69.432ZM27.7049 56.1201C26.7398 56.1201 25.932 56.5188 25.2396 57.3265C24.5263 58.1552 24.1801 59.1413 24.1801 60.3371C24.1801 61.533 24.5263 62.5191 25.2396 63.3478C25.932 64.1555 26.7398 64.5541 27.7049 64.5541C28.67 64.5541 29.4778 64.1555 30.1701 63.3478C30.8835 62.5191 31.2297 61.533 31.2297 60.3371C31.2297 59.1413 30.8835 58.1657 30.1701 57.3265C29.4673 56.5188 28.67 56.1201 27.7049 56.1201Z" fill="#1F61E1"/>
<path d="M35.8973 45.7493V64.2957C35.8973 66.8762 33.7992 68.9743 31.2186 68.9743V66.8343C29.8548 68.219 28.2603 68.9113 26.4454 68.9113C25.1236 68.9113 23.9068 68.5337 22.7843 67.7784C21.6618 67.0231 20.7701 65.9846 20.1197 64.6628C19.4588 63.3411 19.1336 61.904 19.1336 60.3514C19.1336 57.9807 19.847 55.9561 21.2737 54.2777C22.7004 52.5993 24.4208 51.7601 26.4454 51.7601C28.2708 51.7601 29.8548 52.4524 31.2186 53.8371V50.4488C31.2291 47.8368 33.3167 45.7493 35.8973 45.7493ZM27.7043 65.0195C28.8058 65.0195 29.7394 64.5684 30.5157 63.6558C31.292 62.7432 31.6802 61.6417 31.6802 60.3409C31.6802 59.0507 31.292 57.9387 30.5157 57.0261C29.7394 56.1135 28.7953 55.6624 27.7043 55.6624C26.6028 55.6624 25.6691 56.1135 24.8929 57.0261C24.1166 57.9387 23.7284 59.0402 23.7284 60.3409C23.7284 61.6417 24.1166 62.7432 24.8929 63.6558C25.6587 64.5579 26.6028 65.0195 27.7043 65.0195ZM35.8973 44.8262C32.8131 44.8262 30.2954 47.3438 30.2954 50.4279V51.8965C29.131 51.1831 27.8407 50.816 26.4454 50.816C24.148 50.816 22.1758 51.7706 20.5708 53.6588C19.0077 55.505 18.2104 57.7499 18.2104 60.3305C18.2104 62.0298 18.5776 63.6138 19.3015 65.0615C20.0253 66.5196 21.0324 67.684 22.2807 68.5232C23.5501 69.3834 24.9558 69.8135 26.4559 69.8135C27.8512 69.8135 29.1415 69.4568 30.3059 68.733V68.9533C30.3059 69.4673 30.715 69.8764 31.2291 69.8764C34.3133 69.8764 36.831 67.3588 36.831 64.2747V45.7493C36.831 45.2353 36.4113 44.8262 35.8973 44.8262ZM27.7043 64.0859C26.886 64.0859 26.1937 63.7397 25.5957 63.0474C24.9558 62.3026 24.6516 61.4214 24.6516 60.3409C24.6516 59.2605 24.9663 58.3793 25.5957 57.6345C26.1937 56.9317 26.886 56.596 27.7043 56.596C28.5225 56.596 29.2149 56.9422 29.8129 57.6345C30.4528 58.3793 30.757 59.271 30.757 60.3409C30.757 61.4214 30.4423 62.3026 29.8129 63.0474C29.2149 63.7502 28.5225 64.0859 27.7043 64.0859Z" fill="white"/>
<path d="M48.9489 69.4616C48.823 69.4616 48.7076 69.4091 48.6237 69.3252C48.5398 69.2413 48.4873 69.1154 48.4873 69C48.5083 64.0382 48.5083 60.7548 48.4873 59.2233C48.4873 57.9435 48.2566 57.0204 47.816 56.4539C47.4068 55.9399 46.8718 55.6881 46.169 55.6881H46.0746C44.5954 55.7301 43.389 57.0099 43.389 58.5204V64.1851C43.389 67.0174 41.0811 69.3252 38.2487 69.3252C37.9969 69.3252 37.7871 69.1154 37.7871 68.8636V45.775C37.7871 45.5233 37.9969 45.3135 38.2487 45.3135C41.0811 45.3135 43.389 47.6213 43.389 50.4536V51.7649C44.2492 51.3453 45.1619 51.041 46.085 50.8627C46.725 50.7368 47.3544 50.6739 47.9628 50.6739C48.4769 50.6739 48.9909 50.7158 49.4839 50.8103C50.6064 51.0201 51.5715 51.5865 52.3583 52.5096C53.1346 53.4223 53.5962 54.6601 53.7326 56.1707C53.7326 56.1812 53.7326 56.2021 53.7326 56.2126V60.3457C53.7326 61.7199 53.7431 63.199 53.7535 64.7515V64.804C53.764 66.0418 53.2815 67.2062 52.4108 68.0874C51.5401 68.9685 50.3756 69.4511 49.1378 69.4511H48.9489V69.4616Z" fill="#1F61E1"/>
<path d="M38.2376 45.7786C40.8183 45.7786 42.9163 47.8766 42.9163 50.4572V52.5342C43.9444 51.9362 45.0249 51.5376 46.1579 51.3173C46.7663 51.2019 47.3643 51.139 47.9413 51.139C48.4343 51.139 48.9169 51.181 49.3785 51.2649C50.396 51.4537 51.2667 51.9677 51.9801 52.8174C52.6934 53.6671 53.113 54.8 53.2494 56.2267V60.3598C53.2494 61.671 53.2494 63.1396 53.2704 64.7761V64.8285C53.2809 67.1363 51.4241 69.014 49.1162 69.014H48.9379C48.9588 64.0313 48.9588 60.7689 48.9379 59.2268C48.9379 57.8421 48.6756 56.8246 48.1616 56.1847C47.658 55.5553 46.9971 55.2406 46.1579 55.2406C46.1264 55.2406 46.1054 55.2406 46.074 55.2406C46.0635 55.2406 46.053 55.2406 46.0425 55.2406C44.2801 55.2931 42.9059 56.7827 42.9059 58.5345V64.1991C42.9059 66.7797 40.8078 68.8777 38.2271 68.8777V45.7786M38.2376 44.8555C37.7236 44.8555 37.3145 45.2646 37.3145 45.7786V68.8672C37.3145 69.1085 37.4089 69.3497 37.5872 69.5176C37.7655 69.6959 37.9963 69.7903 38.2376 69.7903C41.3218 69.7903 43.8395 67.2727 43.8395 64.1886V58.524C43.8395 57.2547 44.8466 56.1847 46.074 56.1532H46.0949C46.1159 56.1532 46.1369 56.1532 46.1579 56.1532C46.7139 56.1532 47.123 56.3421 47.4377 56.7407C47.8154 57.2127 48.0147 58.0624 48.0147 59.2058V59.2163C48.0357 60.7374 48.0357 64.0313 48.0147 68.9826C48.0147 69.2238 48.1091 69.4651 48.2874 69.6434C48.4658 69.8218 48.6966 69.9162 48.9483 69.9162H49.1267C50.4904 69.9162 51.7703 69.3812 52.7354 68.4161C53.7005 67.451 54.225 66.1607 54.2145 64.797V64.7446C54.2041 63.1816 54.1936 61.692 54.1936 60.3388V56.2057C54.1936 56.1742 54.1936 56.1532 54.1936 56.1218C54.0467 54.5063 53.5431 53.1951 52.7144 52.1985C51.8647 51.1915 50.8051 50.5621 49.5673 50.3418C49.0428 50.2474 48.5077 50.1949 47.9622 50.1949C47.3223 50.1949 46.6719 50.2578 46.0005 50.3942C45.2662 50.5411 44.5529 50.7509 43.8605 51.0341V50.4467C43.8395 47.3626 41.3323 44.8555 38.2376 44.8555Z" fill="white"/>
<path d="M74.5851 69.5268C71.3436 69.5268 68.5217 67.4498 67.5356 64.3657L66.0564 59.6872L63.0352 69.2016C62.9722 69.3905 62.7939 69.5268 62.5946 69.5268C59.4265 69.5268 56.7829 67.2505 56.3108 64.114L54.3701 51.1483C54.3491 51.0119 54.3911 50.8755 54.475 50.7811C54.5589 50.6762 54.6953 50.6238 54.8212 50.6238C57.3284 50.6238 59.437 52.5015 59.7307 54.9876L60.5175 61.6698L63.6331 50.949C63.6856 50.7496 63.8744 50.6133 64.0737 50.6133C66.6019 50.6133 68.8679 52.3127 69.5707 54.7464L71.5849 61.6698L72.8333 51.0224C72.8647 50.7916 73.0535 50.6133 73.2948 50.6133C74.4278 50.6133 75.5083 51.1063 76.2426 51.9665C76.9875 52.8267 77.3127 53.9596 77.1448 55.082L75.0362 69.1282C75.0153 69.359 74.8159 69.5268 74.5851 69.5268Z" fill="#1F61E1"/>
<path d="M73.3082 51.0899C75.4063 51.0899 77.0113 52.9571 76.6966 55.0341L74.588 69.0803C71.5668 69.0803 68.8917 67.1291 67.9791 64.2444L66.2796 58.8945C66.2482 58.7791 66.1537 58.7266 66.0488 58.7266C65.9544 58.7266 65.86 58.7791 65.8181 58.8945L62.587 69.0803C59.6707 69.0803 57.1949 66.9508 56.7648 64.066L54.8136 51.1004C57.09 51.1004 58.9993 52.7997 59.2615 55.0551L60.1847 62.9226C60.1952 63.0485 60.3001 63.1219 60.405 63.1219C60.4994 63.1219 60.5833 63.0695 60.6148 62.9646L64.0661 51.1108C66.4055 51.1108 68.4721 52.6529 69.1225 54.9082L71.4724 62.9751C71.5039 63.08 71.5983 63.1324 71.6822 63.1324C71.7871 63.1324 71.892 63.0695 71.9025 62.9331L73.3082 51.0899ZM73.3082 50.1562C72.8362 50.1562 72.448 50.5024 72.3851 50.9745L71.399 59.3455L70.0247 54.6145C69.2589 51.992 66.8146 50.1562 64.0766 50.1562C63.6675 50.1562 63.3004 50.429 63.185 50.8276L60.7092 59.356L60.1952 54.9397C59.8805 52.2123 57.5726 50.1667 54.8241 50.1667C54.5513 50.1667 54.2996 50.2821 54.1212 50.4919C53.9429 50.6912 53.8694 50.964 53.9114 51.2367L55.8626 64.2024C56.1039 65.8179 56.9222 67.2865 58.16 68.3565C59.3979 69.416 60.9715 70.0034 62.608 70.0034C63.0066 70.0034 63.3633 69.7412 63.4892 69.353L66.0698 61.2337L67.1084 64.5171C68.1469 67.79 71.1577 69.9929 74.5985 69.9929C75.0601 69.9929 75.4483 69.6572 75.5112 69.2062L77.6198 55.16C77.8086 53.9012 77.4415 52.6319 76.6127 51.6668C75.784 50.7122 74.5776 50.1562 73.3082 50.1562Z" fill="white"/>
<path d="M83.1906 69.5163C80.505 69.5163 78.3125 67.1771 78.3125 64.2923V51.0748C78.3125 50.8231 78.5223 50.6133 78.7741 50.6133C81.4596 50.6133 83.6521 52.9526 83.6521 55.8373V69.0548C83.6521 69.3065 83.4423 69.5163 83.1906 69.5163Z" fill="#1F61E1"/>
<path d="M78.7728 51.0794C81.2065 51.0794 83.1892 53.2089 83.1892 55.8419V69.0593C80.7555 69.0593 78.7728 66.9298 78.7728 64.2968V51.0794ZM78.7728 50.1562C78.2587 50.1562 77.8496 50.5654 77.8496 51.0794V64.2968C77.8496 67.4333 80.2414 69.9824 83.1892 69.9824C83.7033 69.9824 84.1124 69.5733 84.1124 69.0593V55.8419C84.1124 52.7053 81.7206 50.1562 78.7728 50.1562Z" fill="white"/>
<path d="M9.58957 69.416C4.30239 69.416 0.462891 65.6187 0.462891 60.3736V60.3107C0.462891 55.1181 4.187 51.2158 9.12799 51.2158C15.4327 51.2158 17.6672 56.314 17.6672 60.6883V60.7513C17.6672 61.1079 17.6462 61.3597 17.6252 61.6534C17.5938 62.073 17.2476 62.3877 16.828 62.3877H6.21165C6.73617 63.9088 7.92159 64.7165 9.663 64.7165C10.2924 64.7165 10.8484 64.6326 11.352 64.4543C11.9184 64.2549 12.5059 64.15 13.1039 64.15C14.4152 64.15 15.6845 64.6326 16.6811 65.5138C16.8699 65.6816 16.8909 65.9543 16.7336 66.1536C14.9816 68.3146 12.5793 69.416 9.58957 69.416ZM12.0758 58.5274C11.6981 56.87 10.6281 55.9259 9.12799 55.9259C7.16628 55.9259 6.40047 57.4574 6.11723 58.5274H12.0758Z" fill="#1F61E1"/>
<path d="M9.12667 51.6836C14.6656 51.6836 17.2043 55.9845 17.2043 60.6946V60.7575C17.2043 61.1037 17.1833 61.3449 17.1623 61.6177C17.1519 61.796 17.005 61.9324 16.8267 61.9324H5.96905C5.78023 61.9324 5.64385 62.1107 5.6963 62.2995C6.24181 64.1982 7.67899 65.1843 9.66169 65.1843C10.3436 65.1843 10.9415 65.0899 11.508 64.8906C12.0325 64.7018 12.5675 64.6178 13.1025 64.6178C14.288 64.6178 15.4629 65.0584 16.3756 65.8662C14.823 67.7858 12.599 68.9607 9.59874 68.9607C4.61579 68.9607 0.933648 65.4675 0.933648 60.3903V60.3274C0.923157 55.5754 4.30108 51.6836 9.12667 51.6836ZM5.85366 58.9847H12.3158C12.4836 58.9847 12.599 58.8378 12.578 58.67C12.2214 56.7398 11.015 55.4495 9.12667 55.4495C7.28036 55.4495 6.04249 56.6979 5.60189 58.6595C5.55993 58.8273 5.68581 58.9847 5.85366 58.9847ZM9.12667 50.75C6.56701 50.75 4.22764 51.757 2.53868 53.5928C0.902177 55.3656 0 57.7469 0 60.3169V60.3799C0 65.8871 4.03882 69.8838 9.58825 69.8838C12.6829 69.8838 15.2741 68.6985 17.0889 66.4431C17.4036 66.055 17.3512 65.499 16.984 65.1738C15.9035 64.2192 14.5188 63.6947 13.0921 63.6947C12.4416 63.6947 11.8017 63.8101 11.1828 64.0199C10.7212 64.1877 10.2282 64.2612 9.64071 64.2612C8.36087 64.2612 7.43771 63.7891 6.9027 62.866H16.8162C17.4771 62.866 18.0226 62.352 18.075 61.7016C18.096 61.3974 18.117 61.1351 18.117 60.768V60.705C18.117 58.0406 17.3512 55.6069 15.9559 53.8551C14.3614 51.82 11.9906 50.75 9.12667 50.75ZM6.75584 58.0616C7.10202 57.2433 7.79439 56.3832 9.12667 56.3832C10.4799 56.3832 11.1408 57.2433 11.4451 58.0616H6.75584Z" fill="white"/>
</svg>
