<svg width="32" height="24" viewBox="0 0 32 24" fill="none" xmlns="http://www.w3.org/2000/svg">
<path d="M31.7122 15.26H27.1061C28.6172 12.6966 28.7202 9.51981 27.3422 6.84076C27.2663 6.69226 27.0946 6.64127 26.953 6.71626L20.6413 10.2726C20.7099 9.83613 20.7486 9.40115 20.7486 8.97666C20.7486 4.10045 16.3685 0.233351 16.1809 0.0686217C16.0736 -0.0228739 15.9219 -0.0228739 15.8146 0.0686217C15.6271 0.232114 11.2469 4.10045 11.2469 8.97666C11.2469 9.40115 11.2856 9.83613 11.3542 10.2771L5.04253 6.71776C4.90516 6.64126 4.72916 6.69376 4.6576 6.84225C3.27961 9.52265 3.37976 12.698 4.89085 15.2615L0.286189 15.26C0.125923 15.26 0 15.392 0 15.56V16.6924C0 20.7196 3.12516 24 6.97146 24H25.0285C28.8749 24 32 20.7196 32 16.6924V15.56C32 15.392 31.8741 15.26 31.7138 15.26L31.7122 15.26ZM26.9702 7.39292C28.165 9.93682 27.9589 12.9127 26.425 15.26H22.6859C19.824 15.26 17.3585 17.0794 16.2867 19.6712V18.1038C16.2867 17.9598 16.291 17.8083 16.2981 17.6598C16.4512 14.9074 17.9194 12.4925 20.2287 11.192L26.9713 7.39265L26.9702 7.39292ZM15.7131 19.6758C14.6413 17.0794 12.1801 15.26 9.31385 15.26H5.57774C4.03948 12.9126 3.83771 9.93682 5.02826 7.39292L11.6147 11.1053L11.775 11.1938C14.0802 12.4897 15.5485 14.9091 15.7016 17.6616C15.7087 17.8101 15.713 17.9616 15.713 18.1056V19.6775L15.7131 19.6758Z" fill="#1F61E1"/>
</svg>
