<svg width="24" height="24" viewBox="0 0 24 24" fill="none" xmlns="http://www.w3.org/2000/svg">
<path d="M22.4751 0.0122246C22.3664 -0.0154886 22.2455 0.0043069 22.1528 0.0676485C20.6258 1.08507 18.8732 1.59575 17.177 2.08668C14.4494 2.87845 11.875 3.63064 10.5775 6.33462C9.79988 7.95378 9.73139 9.54528 10.376 11.0695C10.7286 11.9009 11.2755 12.6254 11.9655 13.2083C11.4377 14.588 11.0025 16.1833 10.7427 18.0291C10.3116 16.9671 9.74649 16.0556 9.14215 15.2816C9.19453 15.1836 9.25295 15.0886 9.29626 14.9847C9.72737 13.9593 9.68305 12.8865 9.16331 11.8019C8.29305 9.9927 6.51617 9.47408 4.79576 8.97533C3.70793 8.65862 2.57981 8.33003 1.60894 7.68473C1.51627 7.62535 1.40346 7.6016 1.29871 7.62535C1.18993 7.6491 1.09726 7.7164 1.04086 7.80745C0.964304 7.92622 -0.743989 10.7726 0.384126 14.1457C1.13755 16.3983 3.31722 17.483 5.23102 17.483C5.45665 17.483 5.67825 17.4672 5.8958 17.4355C6.72578 17.3167 7.47516 17.008 8.07952 16.5448C7.91836 16.3231 7.74916 16.1133 7.5759 15.9153C6.01266 14.114 4.32848 13.2509 4.30037 13.2352C4.09892 13.1362 4.02238 12.8987 4.1231 12.7047C4.22382 12.5107 4.46556 12.4315 4.66702 12.5305C4.68515 12.5394 4.73954 12.5681 4.82012 12.6136C4.82616 12.6176 4.83019 12.6226 4.83623 12.6255C4.84026 12.6275 4.88458 12.6503 4.96013 12.6928C5.39626 12.9452 6.25848 13.4925 7.20326 14.3664C7.22642 14.3882 7.24858 14.408 7.27175 14.4298C7.30197 14.4585 7.33319 14.4892 7.36442 14.5188C8.63758 15.7501 10.0185 17.596 10.5373 20.1038C10.4648 21.2004 10.4567 22.3722 10.5172 23.6233C10.5293 23.8411 10.7186 24.0113 10.9402 23.9994H10.9483C11.1658 23.9875 11.3351 23.8015 11.323 23.5837C11.2706 22.5267 11.2706 21.5291 11.3189 20.5869C11.327 20.4127 11.335 20.2425 11.3471 20.0762C11.883 12.2515 15.5726 8.37679 17.3142 6.96655C17.3575 6.93191 17.4038 6.89331 17.4451 6.86065C17.4662 6.84383 17.4854 6.82898 17.5065 6.81314C17.6919 6.67063 17.8561 6.55385 17.992 6.46279C18.0081 6.4519 18.0263 6.44003 18.0404 6.43112C18.0504 6.42518 18.0575 6.42023 18.0666 6.4133C18.1592 6.35392 18.2146 6.32225 18.2207 6.31829C18.2287 6.31433 18.2328 6.30641 18.2398 6.30246C18.3274 6.24901 18.3909 6.21239 18.4141 6.19953C18.6115 6.09264 18.8532 6.15994 18.962 6.35392C19.0708 6.54395 19.0023 6.78543 18.8089 6.89233C18.7606 6.92004 15.6783 8.6738 13.6397 13.3413C13.5309 13.5788 13.4302 13.8282 13.3295 14.0855C13.9741 14.3983 14.6872 14.612 15.4487 14.7189C15.7791 14.7664 16.1941 14.8021 16.6614 14.8021C18.7605 14.8021 21.9433 14.038 23.3657 9.75856C25.0619 4.65956 22.8298 0.39186 22.7371 0.209689C22.6807 0.110719 22.5881 0.0394572 22.4753 0.0117465L22.4751 0.0122246Z" fill="#1F61E1"/>
</svg>
