<svg width="280" height="280" viewBox="0 0 280 280" fill="none" xmlns="http://www.w3.org/2000/svg">
<path d="M279.724 139.863C279.724 217.132 217.13 279.726 139.862 279.726C62.5941 279.726 0 217.132 0 139.863C0 62.5944 62.5941 0 139.862 0C217.13 0 279.724 62.5944 279.724 139.863Z" fill="white"/>
<path d="M122.972 47.922C117.928 47.922 112.196 46.6991 106.082 44.2534C103.789 43.3363 101.496 42.4956 98.9739 41.6549C89.2676 38.5214 77.6507 35.6171 64.4288 33.0186C63.4352 32.7893 62.6709 32.025 62.4416 31.0314C62.2124 30.0379 62.6709 29.0443 63.5116 28.4329C86.0577 12.918 112.502 4.74023 139.939 4.74023C152.244 4.74023 164.472 6.42165 176.242 9.70805C177.236 10.0138 178 10.778 178.153 11.848C178.306 12.918 177.923 13.9116 177.006 14.523C161.186 25.6815 145.671 37.1456 138.64 42.7249C134.283 46.1641 129.01 47.922 122.972 47.922Z" fill="#00BBFA"/>
<path d="M139.938 6.49759C152.319 6.49759 164.395 8.17901 175.782 11.389C176.623 11.6183 176.776 12.7647 176.088 13.2232C160.65 24.076 144.906 35.6931 137.645 41.5016C133.595 44.7115 128.703 46.3165 123.048 46.3165C118.156 46.3165 112.73 45.0937 106.769 42.7244C104.476 41.8073 102.183 40.9666 99.5843 40.1259C88.6552 36.5337 76.5033 33.7059 64.8099 31.4131C64.122 31.2602 63.8927 30.3431 64.5041 29.8845C85.9038 15.1339 111.889 6.49759 139.938 6.49759ZM139.938 3.13477C112.118 3.13477 85.3688 11.4654 62.517 27.1331C61.1414 28.1267 60.4535 29.8081 60.7592 31.4131C61.1413 33.0945 62.4406 34.3173 64.0456 34.6995C77.1911 37.2216 88.7316 40.1259 98.3615 43.2594C100.807 44.0237 103.1 44.8644 105.393 45.7815C111.736 48.3036 117.621 49.6029 122.895 49.6029C129.315 49.6029 134.894 47.7687 139.556 44.1001C146.587 38.5209 162.025 27.0567 177.846 15.9747C179.222 14.9811 179.91 13.2997 179.68 11.6183C179.375 9.93685 178.152 8.56114 176.547 8.10258C164.777 4.81618 152.396 3.13477 139.938 3.13477Z" fill="white"/>
<path d="M142.767 111.737C136.5 111.737 131.991 110.284 123.736 107.151C114.718 103.712 89.4969 92.9353 65.1166 82.5411L63.5116 81.8532C52.0475 76.9619 40.4305 71.9941 30.6478 67.8669C29.6542 67.4848 28.9664 66.6441 28.6607 65.5741C28.355 64.5805 28.5078 63.4341 29.1192 62.5934C34.4692 54.8742 40.6598 47.7664 47.5382 41.3465C47.844 41.0408 48.3025 40.8879 48.6847 40.8879C48.7611 40.8879 48.8375 40.8879 48.9904 40.8879C67.4858 43.8686 83.2299 47.4607 95.764 51.5878C98.2096 52.3521 100.273 53.1164 102.26 53.9571C109.597 56.9378 116.629 58.3899 123.049 58.3899C131.456 58.3899 138.869 55.8678 145.136 50.9764C156.753 41.805 175.936 27.8952 192.75 16.3545C193.056 16.1253 193.362 16.0488 193.667 16.0488C193.897 16.0488 194.126 16.1253 194.355 16.2017C212.469 24.2266 228.977 36.3787 242.046 51.435C242.81 52.2757 242.963 53.4221 242.581 54.4921C242.199 55.5621 241.205 56.2499 240.135 56.4028C227.219 57.8549 202.304 62.4406 180.598 77.2676C171.58 83.3818 164.014 91.8653 157.976 102.259C157.135 103.712 152.702 110.819 146.053 111.584H145.9C144.754 111.737 143.684 111.737 142.767 111.737Z" fill="#1F61E1"/>
<path d="M193.666 17.73C211.856 25.7549 227.906 37.6777 240.746 52.5047C241.433 53.3454 240.975 54.5683 239.905 54.6447C225.384 56.2497 201.08 61.1411 179.604 75.7388C170.432 82.0059 162.637 90.6422 156.446 101.266C154.688 104.323 150.714 109.214 145.823 109.826H145.746C144.676 109.902 143.683 109.902 142.766 109.902C136.651 109.902 132.142 108.373 124.347 105.393C115.328 101.954 89.9543 91.1008 65.4211 80.6302C53.5749 75.5859 41.4994 70.3888 31.3345 66.1089C30.2645 65.6503 29.8824 64.351 30.5702 63.3575C35.9202 55.7147 41.9579 48.6833 48.76 42.3398C63.7397 44.7855 80.7066 48.2248 95.3043 52.9633C97.5971 53.7276 99.6606 54.4918 101.648 55.2561C109.825 58.5425 116.933 59.8418 123.124 59.8418C133.594 59.8418 141.161 56.0968 146.281 52.0461C158.663 42.4162 178.152 28.3535 193.666 17.73ZM193.666 14.3672C192.978 14.3672 192.367 14.5965 191.756 14.9786C174.865 26.5192 155.682 40.4291 143.989 49.6004C138.027 54.2625 130.996 56.6318 122.895 56.6318C116.704 56.6318 109.902 55.1797 102.718 52.2754C100.731 51.5111 98.5906 50.7469 96.145 49.9062C83.458 45.7791 67.6375 42.1869 49.0657 39.1298C48.9128 39.1298 48.6835 39.0534 48.5307 39.0534C47.69 39.0534 46.8493 39.3591 46.2379 39.9705C39.283 46.4669 33.0159 53.7275 27.5896 61.5232C26.6724 62.8225 26.4432 64.4275 26.8253 65.956C27.2839 67.4846 28.3538 68.7074 29.806 69.3188C39.5887 73.4459 51.2821 78.4137 62.5169 83.2287L63.8926 83.8401L64.3512 84.0694C88.7315 94.4636 113.953 105.24 122.971 108.679C130.614 111.583 135.658 113.341 142.613 113.341C143.683 113.341 144.676 113.265 145.823 113.188H145.899H145.976C151.784 112.501 156.599 107.456 159.198 103.024C165.082 92.7822 172.572 84.6044 181.362 78.5666C202.761 63.9689 227.371 59.4596 240.134 58.0075C241.892 57.7782 243.344 56.7082 243.956 55.0268C244.567 53.4218 244.261 51.5876 243.115 50.2119C229.893 35.0027 213.232 22.6214 194.889 14.52C194.583 14.52 194.125 14.3672 193.666 14.3672Z" fill="white"/>
<path d="M170.586 106.543C170.051 106.543 169.516 106.237 169.134 105.778C168.752 105.243 168.752 104.479 169.134 103.944C173.949 96.5306 179.834 90.4164 186.483 85.9071C214.15 67.0294 248.389 66.1887 252.134 66.1123C252.669 66.1123 253.204 66.418 253.587 66.8766C260.236 77.2708 265.509 88.5057 269.101 100.276C269.407 101.422 269.254 102.568 268.566 103.486C267.878 104.403 266.808 104.938 265.662 104.938C265.509 104.938 265.356 104.938 265.204 104.938C253.816 103.409 240.9 102.645 226.99 102.645C204.367 102.645 183.12 104.632 170.816 106.543C170.739 106.543 170.663 106.543 170.586 106.543Z" fill="#00BBFA"/>
<path d="M252.134 67.7935C258.63 77.9584 263.827 88.964 267.419 100.734C267.802 101.957 266.884 103.256 265.585 103.256C265.509 103.256 265.432 103.256 265.356 103.256C252.745 101.575 239.523 100.963 226.989 100.963C203.144 100.963 181.515 103.18 170.586 104.861C175.324 97.6004 180.98 91.7154 187.4 87.2826C214.608 68.7106 248.236 67.8699 252.134 67.7935ZM252.134 64.4307C248.236 64.4307 213.538 65.3478 185.489 84.5312C178.687 89.1933 172.649 95.4604 167.682 103.103C166.994 104.25 166.917 105.625 167.682 106.772C168.293 107.765 169.363 108.3 170.509 108.3C170.662 108.3 170.815 108.3 171.044 108.3C182.738 106.542 204.367 104.479 226.989 104.479C240.823 104.479 253.586 105.243 264.974 106.695C265.203 106.695 265.432 106.772 265.662 106.772C267.343 106.772 268.872 106.007 269.865 104.632C270.859 103.256 271.164 101.498 270.706 99.8932C267.037 87.9704 261.764 76.5827 255.038 66.1121C254.35 65.0421 253.28 64.4307 252.134 64.4307Z" fill="white"/>
<path d="M101.037 269.104C100.884 269.104 100.731 269.104 100.578 269.028C60.7594 256.952 28.2777 226.458 13.5272 187.479C13.2979 186.868 13.4508 186.104 13.9094 185.645C14.2151 185.339 14.6736 185.187 15.0558 185.187C15.285 185.187 15.5143 185.263 15.6672 185.339C16.2022 185.569 16.7372 185.798 17.2722 186.027C34.6976 193.899 81.0126 212.242 135.811 212.242C138.562 212.242 141.314 212.166 143.989 212.089C145.441 212.089 146.587 212.777 147.275 213.923C147.963 215.07 147.887 216.446 147.275 217.592C141.925 226.61 128.933 245.182 102.03 268.646C101.877 269.028 101.419 269.104 101.037 269.104Z" fill="#1F61E1"/>
<path d="M15.1333 186.945C15.6683 187.174 16.2032 187.403 16.7382 187.633C35.3865 196.116 81.3959 214 136.041 214C138.716 214 141.468 213.924 144.219 213.847H144.296C145.824 213.847 146.741 215.529 145.977 216.828C140.933 225.312 128.093 243.96 101.114 267.423C61.4483 255.424 29.6545 225.388 15.1333 186.945ZM15.1333 183.582C14.2926 183.582 13.4519 183.888 12.764 184.499C11.7705 185.416 11.4647 186.868 11.9233 188.091C26.8267 227.528 59.7669 258.405 100.044 270.633C100.35 270.71 100.732 270.786 101.038 270.786C101.878 270.786 102.643 270.481 103.254 269.946C130.309 246.329 143.378 227.604 148.805 218.51C149.798 216.828 149.798 214.841 148.881 213.16C147.964 211.478 146.13 210.485 144.296 210.485H144.143C141.468 210.561 138.793 210.637 136.041 210.637C81.5487 210.637 35.3865 192.371 18.1139 184.576C17.5789 184.346 16.9675 184.117 16.4325 183.811C15.974 183.658 15.5154 183.582 15.1333 183.582Z" fill="white"/>
<path d="M139.94 274.91C132.374 274.91 124.731 274.299 117.318 272.999C116.706 272.923 116.171 272.464 116.018 271.853C115.865 271.241 116.018 270.554 116.477 270.095C149.952 239.218 159.429 217.513 159.811 216.596L160.04 216.137C160.117 215.984 170.052 188.317 196.42 170.357C213.54 158.74 240.289 156.523 254.734 156.294C255.498 156.294 256.186 156.294 256.95 156.294C261.995 156.294 267.115 156.6 272.159 157.211C272.618 157.288 273 157.517 273.306 157.823C273.612 158.205 273.688 158.663 273.612 159.122C269.026 190.992 253.129 220.188 228.749 241.511C204.139 263.064 172.575 274.91 139.94 274.91Z" fill="#FFBE0F"/>
<path d="M256.873 158.051C261.841 158.051 266.885 158.357 271.93 158.968C262.682 223.55 207.119 273.228 139.939 273.228C132.297 273.228 124.883 272.617 117.623 271.394C151.174 240.441 160.804 218.659 161.416 217.359L161.568 216.977C161.645 216.671 171.504 189.463 197.336 171.961C214.074 160.573 240.518 158.433 254.733 158.204C255.421 158.051 256.109 158.051 256.873 158.051ZM256.873 154.688C256.109 154.688 255.421 154.688 254.657 154.688C240.059 154.994 212.928 157.211 195.426 169.057C169.593 186.559 159.276 213.385 158.435 215.602L158.282 215.907C157.9 216.824 148.576 238.224 115.33 268.872C114.413 269.712 114.031 271.088 114.413 272.311C114.795 273.534 115.788 274.451 117.088 274.68C124.578 275.98 132.297 276.591 140.016 276.591C173.109 276.591 205.056 264.592 229.971 242.886C254.657 221.334 270.783 191.756 275.369 159.503C275.522 158.586 275.292 157.669 274.681 156.981C274.146 156.293 273.305 155.758 272.388 155.682C267.191 154.994 261.994 154.688 256.873 154.688Z" fill="white"/>
<path d="M131.38 201.845C80.556 200.852 37.7566 183.808 21.7068 176.548C21.3247 176.395 20.9426 176.242 20.5604 176.089C12.5356 172.573 6.87994 165.083 5.80995 156.371C5.12211 150.944 4.81641 145.365 4.81641 139.862C4.81641 117.851 10.2428 95.9927 20.484 76.6564C20.7897 76.1214 21.4011 75.7393 21.9361 75.7393C22.1654 75.7393 22.3947 75.8157 22.624 75.8921C33.706 80.5542 47.9979 86.6684 60.532 92.0184C83.9952 102.03 110.592 113.418 119.916 117.01C129.087 120.45 137.647 122.207 145.366 122.207C153.621 122.207 159.582 120.22 163.938 118.845L164.397 118.692C165.39 118.386 166.231 118.08 166.995 117.851C171.81 116.552 197.413 113.112 226.762 113.112C243.728 113.112 258.861 114.259 271.701 116.552C272.389 116.705 272.924 117.24 273.077 117.927C274.223 125.112 274.834 132.525 274.834 139.862C274.834 140.474 274.834 141.162 274.834 141.773C274.758 144.371 272.618 146.511 270.02 146.511C269.867 146.511 269.714 146.511 269.561 146.511C265.281 146.129 261.001 145.9 256.798 145.9C255.957 145.9 255.116 145.9 254.352 145.9C235.321 146.282 208.725 149.263 190.382 161.797C181.134 168.064 172.804 176.013 165.543 185.413C157.671 195.731 145.137 201.845 132.068 201.845H131.38Z" fill="#1F61E1"/>
<path d="M22.0104 77.4205C32.8631 82.0061 46.5436 87.8146 59.9184 93.5467C84.6044 104.094 110.055 115.023 119.379 118.539C130.002 122.589 138.486 123.889 145.441 123.889C154.001 123.889 160.038 121.901 164.548 120.449C165.694 120.067 166.687 119.761 167.528 119.532C172.343 118.233 197.946 114.87 226.836 114.87C241.663 114.87 257.33 115.787 271.469 118.233C272.616 125.264 273.227 132.525 273.227 139.862C273.227 140.473 273.227 141.161 273.227 141.773C273.227 143.454 271.775 144.83 270.094 144.83C270.017 144.83 269.865 144.83 269.788 144.83C265.432 144.448 261.152 144.218 256.872 144.218C256.031 144.218 255.19 144.218 254.35 144.218C235.09 144.601 208.188 147.658 189.463 160.345C178.763 167.605 170.509 176.242 164.242 184.343C156.599 194.355 144.676 200.087 132.066 200.087C131.837 200.087 131.531 200.087 131.302 200.087C81.3945 199.17 39.5887 182.738 22.3161 174.942C21.934 174.79 21.5518 174.637 21.1697 174.407C13.6798 171.121 8.40631 164.166 7.41275 156.065C6.72491 150.715 6.41918 145.288 6.41918 139.786C6.57204 117.316 12.1513 96.0689 22.0104 77.4205ZM22.0104 74.0576C20.7876 74.0576 19.6411 74.7455 19.0297 75.8155C8.63558 95.381 3.13281 117.545 3.13281 139.862C3.13281 145.441 3.43851 151.097 4.12636 156.6C5.27277 165.848 11.3105 173.949 19.8704 177.617C20.2525 177.77 20.5583 177.923 20.9404 178.076C37.0666 185.413 80.1716 202.533 131.225 203.526C131.531 203.526 131.76 203.526 132.066 203.526C145.67 203.526 158.739 197.107 166.917 186.407C174.024 177.159 182.279 169.287 191.297 163.173C209.334 150.944 235.549 147.963 254.35 147.581C255.19 147.581 255.955 147.581 256.795 147.581C260.922 147.581 265.202 147.811 269.406 148.193C269.635 148.193 269.788 148.193 270.017 148.193C273.533 148.193 276.437 145.288 276.514 141.773C276.514 141.085 276.514 140.473 276.514 139.786C276.514 132.296 275.902 124.806 274.679 117.545C274.45 116.169 273.38 115.023 271.928 114.794C259.012 112.501 243.803 111.354 226.683 111.354C197.182 111.354 171.35 114.794 166.458 116.169C165.617 116.399 164.777 116.704 163.783 117.01L163.325 117.163C159.121 118.539 153.313 120.449 145.288 120.449C137.721 120.449 129.391 118.692 120.372 115.329C111.048 111.813 84.4516 100.425 60.9884 90.4132C48.4543 85.0633 34.1623 78.949 23.0804 74.2869C22.9275 74.1341 22.469 74.0576 22.0104 74.0576Z" fill="white"/>
</svg>
