<svg width="613" height="184" viewBox="0 0 613 184" fill="none" xmlns="http://www.w3.org/2000/svg">
<path d="M227.524 179.301C225.69 179.301 224.162 177.772 224.162 175.938V167.913C214.914 175.173 204.367 178.842 192.75 178.842C182.509 178.842 172.879 175.861 164.242 169.976C155.606 164.168 148.728 156.066 143.683 145.978C138.639 135.966 136.117 124.884 136.117 113.038C136.117 95.0006 141.62 79.4093 152.549 66.5694C163.555 53.5767 177.082 47.0039 192.826 47.0039C204.443 47.0039 214.99 50.6724 224.238 57.933V40.7368C224.238 20.1012 241.052 3.28711 261.687 3.28711C263.522 3.28711 265.05 4.81569 265.05 6.64996V141.774C264.974 162.486 248.16 179.301 227.524 179.301ZM201.845 82.3136C194.813 82.3136 188.929 85.2178 183.884 91.1028C178.687 97.1406 176.165 104.325 176.165 113.038C176.165 121.75 178.687 128.935 183.884 134.972C188.929 140.857 194.813 143.762 201.845 143.762C208.876 143.762 214.761 140.857 219.805 134.972C225.002 128.935 227.524 121.75 227.524 113.038C227.524 104.325 225.002 97.217 219.805 91.1028C214.685 85.2178 208.876 82.3136 201.845 82.3136Z" fill="#1F61E1"/>
<path d="M261.534 6.72564V141.85C261.534 160.651 246.249 175.937 227.448 175.937V160.346C217.512 170.434 205.895 175.478 192.673 175.478C183.043 175.478 174.178 172.727 166 167.224C157.822 161.721 151.326 154.155 146.588 144.525C141.773 134.895 139.403 124.425 139.403 113.113C139.403 95.8406 144.6 81.09 154.995 68.8615C165.389 56.633 177.923 50.5188 192.673 50.5188C205.972 50.5188 217.512 55.563 227.448 65.6515V40.9653C227.524 21.9348 242.733 6.72564 261.534 6.72564ZM201.845 147.124C209.869 147.124 216.671 143.837 222.327 137.188C227.983 130.539 230.811 122.514 230.811 113.037C230.811 103.636 227.983 95.5348 222.327 88.8856C216.671 82.2364 209.793 78.95 201.845 78.95C193.82 78.95 187.018 82.2364 181.362 88.8856C175.706 95.5348 172.879 103.56 172.879 113.037C172.879 122.514 175.706 130.539 181.362 137.188C186.941 143.761 193.82 147.124 201.845 147.124ZM261.534 0C239.065 0 220.722 18.3427 220.722 40.8125V51.5124C212.239 46.3153 202.838 43.6403 192.673 43.6403C175.936 43.6403 161.567 50.5953 149.874 64.3523C138.486 77.8036 132.678 94.1591 132.678 112.96C132.678 125.342 135.353 136.882 140.626 147.429C145.9 158.053 153.237 166.536 162.332 172.651C171.579 178.918 181.821 182.051 192.75 182.051C202.915 182.051 212.315 179.453 220.799 174.179V175.784C220.799 179.529 223.779 182.51 227.524 182.51C249.994 182.51 268.336 164.167 268.336 141.697V6.72564C268.336 2.98068 265.279 0 261.534 0ZM201.845 140.322C195.883 140.322 190.839 137.799 186.483 132.755C181.821 127.329 179.604 120.909 179.604 113.037C179.604 105.165 181.897 98.7448 186.483 93.3184C190.839 88.1978 195.883 85.7521 201.845 85.7521C207.806 85.7521 212.85 88.2742 217.206 93.3184C221.869 98.7448 224.085 105.241 224.085 113.037C224.085 120.909 221.792 127.329 217.206 132.755C212.85 137.876 207.806 140.322 201.845 140.322Z" fill="white"/>
<path d="M356.61 179.529C355.693 179.529 354.852 179.147 354.241 178.535C353.629 177.924 353.247 177.007 353.247 176.166C353.4 140.016 353.4 116.094 353.247 104.935C353.247 95.6109 351.566 88.8853 348.356 84.7582C345.375 81.0132 341.477 79.1789 336.357 79.1789H335.669C324.892 79.4847 316.103 88.8089 316.103 99.8145V141.086C316.103 161.721 299.289 178.535 278.654 178.535C276.82 178.535 275.291 177.007 275.291 175.172V6.9546C275.291 5.12033 276.82 3.5918 278.654 3.5918C299.289 3.5918 316.103 20.4059 316.103 41.0415V50.5949C322.37 47.5378 329.02 45.3214 335.745 44.0221C340.407 43.105 344.993 42.6464 349.426 42.6464C353.171 42.6464 356.915 42.9521 360.508 43.64C368.685 45.1685 375.717 49.2957 381.449 56.0213C387.104 62.6705 390.467 71.689 391.461 82.6947C391.461 82.7711 391.461 82.9239 391.461 83.0003V113.113C391.461 123.125 391.537 133.901 391.614 145.213V145.595C391.69 154.613 388.174 163.097 381.831 169.517C375.487 175.937 367.004 179.452 357.985 179.452H356.61V179.529Z" fill="#1F61E1"/>
<path d="M278.577 6.95416C297.378 6.95416 312.664 22.2398 312.664 41.041V56.1737C320.154 51.8173 328.026 48.9131 336.28 47.3081C340.713 46.4674 345.069 46.0088 349.273 46.0088C352.865 46.0088 356.38 46.3145 359.743 46.9259C367.157 48.3016 373.5 52.0466 378.697 58.2373C383.894 64.428 386.951 72.6822 387.945 83.0764V113.189C387.945 122.742 387.945 133.442 388.098 145.365V145.747C388.174 162.561 374.646 176.242 357.832 176.242H356.533C356.686 139.939 356.686 116.17 356.533 104.935C356.533 94.8462 354.622 87.4327 350.878 82.7706C347.209 78.185 342.394 75.8921 336.28 75.8921C336.051 75.8921 335.898 75.8921 335.668 75.8921C335.592 75.8921 335.516 75.8921 335.439 75.8921C322.599 76.2743 312.587 87.127 312.587 99.8905V141.162C312.587 159.963 297.302 175.248 278.501 175.248V6.95416M278.577 0.228516C274.832 0.228516 271.852 3.20919 271.852 6.95416V175.172C271.852 176.93 272.539 178.688 273.839 179.91C275.138 181.21 276.819 181.898 278.577 181.898C301.047 181.898 319.389 163.555 319.389 141.085V99.814C319.389 90.5663 326.726 82.7706 335.668 82.5414H335.821C335.974 82.5414 336.127 82.5414 336.28 82.5414C340.331 82.5414 343.311 83.917 345.604 86.8213C348.355 90.2606 349.808 96.4512 349.808 104.782V104.858C349.96 115.94 349.96 139.939 349.808 176.013C349.808 177.77 350.495 179.528 351.795 180.828C353.094 182.127 354.775 182.815 356.61 182.815H357.909C367.844 182.815 377.169 178.917 384.2 171.886C391.231 164.854 395.053 155.454 394.976 145.518V145.136C394.9 133.748 394.823 122.895 394.823 113.036V82.9235C394.823 82.6942 394.823 82.5414 394.823 82.3121C393.753 70.5422 390.085 60.9887 384.047 53.728C377.856 46.391 370.137 41.8053 361.119 40.2003C357.297 39.5124 353.4 39.1303 349.425 39.1303C344.763 39.1303 340.025 39.5889 335.133 40.5824C329.784 41.6524 324.586 43.181 319.542 45.2446V40.9646C319.389 18.4948 301.123 0.228516 278.577 0.228516Z" fill="white"/>
<path d="M543.399 179.988C519.782 179.988 499.224 164.855 492.039 142.385L481.263 108.299L459.252 177.619C458.793 178.994 457.494 179.988 456.042 179.988C432.961 179.988 413.701 163.403 410.262 140.551L396.123 46.0863C395.97 45.0927 396.276 44.0992 396.887 43.4113C397.499 42.647 398.492 42.2649 399.409 42.2649C417.675 42.2649 433.037 55.9455 435.177 74.0589L440.909 122.743L463.608 44.6341C463.99 43.182 465.366 42.1885 466.818 42.1885C485.237 42.1885 501.746 54.5698 506.866 72.301L521.54 122.743L530.635 45.1691C530.864 43.4877 532.24 42.1885 533.998 42.1885C542.252 42.1885 550.124 45.7806 555.474 52.0476C560.9 58.3147 563.27 66.569 562.047 74.7467L546.685 177.084C546.532 178.765 545.08 179.988 543.399 179.988Z" fill="#1F61E1"/>
<path d="M534.074 45.6263C549.359 45.6263 561.053 59.2305 558.76 74.3632L543.398 176.7C521.387 176.7 501.898 162.485 495.249 141.467L482.868 102.489C482.638 101.648 481.95 101.266 481.186 101.266C480.498 101.266 479.81 101.648 479.505 102.489L455.965 176.7C434.718 176.7 416.681 161.185 413.548 140.168L399.332 45.7027C415.917 45.7027 429.827 58.0841 431.738 74.516L438.463 131.837C438.54 132.754 439.304 133.289 440.068 133.289C440.756 133.289 441.367 132.907 441.597 132.143L466.741 45.7791C483.785 45.7791 498.841 57.014 503.579 73.446L520.699 132.219C520.928 132.983 521.616 133.366 522.228 133.366C522.992 133.366 523.756 132.907 523.833 131.913L534.074 45.6263ZM534.074 38.8242C530.635 38.8242 527.807 41.3463 527.348 44.7856L520.164 105.775L510.152 71.3061C504.573 52.1991 486.765 38.8242 466.818 38.8242C463.837 38.8242 461.162 40.8114 460.321 43.7156L442.285 105.851L438.54 73.6753C436.247 53.8041 419.433 38.9006 399.409 38.9006C397.422 38.9006 395.587 39.7414 394.288 41.2699C392.989 42.7221 392.454 44.7092 392.76 46.6963L406.975 141.161C408.733 152.931 414.694 163.631 423.713 171.427C432.731 179.146 444.195 183.426 456.118 183.426C459.022 183.426 461.621 181.515 462.538 178.687L481.339 119.532L488.905 143.454C496.472 167.3 518.406 183.349 543.474 183.349C546.837 183.349 549.665 180.904 550.124 177.617L565.486 75.2803C566.861 66.109 564.186 56.8612 558.149 49.8299C552.111 42.8749 543.322 38.8242 534.074 38.8242Z" fill="white"/>
<path d="M606.068 179.911C586.503 179.911 570.529 162.868 570.529 141.85V45.5513C570.529 43.717 572.058 42.1885 573.892 42.1885C593.458 42.1885 609.431 59.2319 609.431 80.2496V176.549C609.431 178.383 607.902 179.911 606.068 179.911Z" fill="#1F61E1"/>
<path d="M573.894 45.5498C591.625 45.5498 606.069 61.0647 606.069 80.2481V176.547C588.338 176.547 573.894 161.032 573.894 141.849V45.5498ZM573.894 38.8242C570.149 38.8242 567.168 41.8049 567.168 45.5498V141.849C567.168 164.701 584.593 183.273 606.069 183.273C609.814 183.273 612.795 180.292 612.795 176.547V80.2481C612.795 57.3962 595.37 38.8242 573.894 38.8242Z" fill="white"/>
<path d="M69.8551 179.15C31.3357 179.15 3.36328 151.483 3.36328 113.269V112.811C3.36328 74.979 30.495 46.5479 66.4923 46.5479C112.425 46.5479 128.704 83.6918 128.704 115.562V116.021C128.704 118.619 128.551 120.454 128.399 122.594C128.169 125.651 125.647 127.944 122.59 127.944H45.2455C49.0669 139.026 57.7032 144.911 70.3901 144.911C74.9758 144.911 79.0264 144.299 82.6949 143C86.822 141.548 91.1019 140.783 95.4583 140.783C105.012 140.783 114.259 144.299 121.52 150.719C122.896 151.942 123.049 153.929 121.902 155.381C109.139 171.125 91.6369 179.15 69.8551 179.15ZM87.9684 99.8181C85.217 87.7425 77.4214 80.864 66.4923 80.864C52.2004 80.864 46.6212 92.0225 44.5576 99.8181H87.9684Z" fill="#1F61E1"/>
<path d="M66.4918 49.9864C106.845 49.9864 125.341 81.3218 125.341 115.638V116.096C125.341 118.619 125.188 120.376 125.035 122.364C124.959 123.663 123.889 124.656 122.59 124.656H43.4872C42.1115 124.656 41.1179 125.956 41.5001 127.331C45.4743 141.165 55.9448 148.349 70.3896 148.349C75.3574 148.349 79.7138 147.661 83.8409 146.209C87.6622 144.833 91.56 144.222 95.4578 144.222C104.094 144.222 112.654 147.432 119.303 153.317C107.992 167.303 91.7893 175.863 69.9311 175.863C33.6281 175.863 6.80203 150.413 6.80203 113.422V112.963C6.72561 78.3411 31.3352 49.9864 66.4918 49.9864ZM42.6465 103.18H89.7258C90.9486 103.18 91.7893 102.11 91.6364 100.887C89.0379 86.8246 80.2488 77.424 66.4918 77.424C53.0406 77.424 44.0222 86.5189 40.8122 100.811C40.5065 102.034 41.4236 103.18 42.6465 103.18ZM66.4918 43.1843C47.8435 43.1843 30.8002 50.5214 18.4954 63.8963C6.57275 76.8126 0 94.1617 0 112.887V113.345C0 153.47 29.4245 182.589 69.8546 182.589C92.4007 182.589 111.278 173.952 124.5 157.52C126.793 154.693 126.411 150.642 123.736 148.273C115.864 141.318 105.776 137.496 95.3814 137.496C90.6429 137.496 85.9808 138.337 81.4716 139.866C78.1088 141.088 74.5167 141.623 70.2368 141.623C60.9126 141.623 54.187 138.184 50.2892 131.459H122.513C127.328 131.459 131.302 127.714 131.684 122.975C131.837 120.759 131.99 118.848 131.99 116.173V115.714C131.99 96.3017 126.411 78.5704 116.246 65.807C104.629 50.98 87.3565 43.1843 66.4918 43.1843ZM49.2192 96.4546C51.7413 90.4932 56.7856 84.2261 66.4918 84.2261C76.351 84.2261 81.1659 90.4932 83.3823 96.4546H49.2192Z" fill="white"/>
</svg>
