<svg width="29" height="29" viewBox="0 0 29 29" fill="none" xmlns="http://www.w3.org/2000/svg">
<g clip-path="url(#clip0_522_980)">
<path d="M21.9479 0.369141H6.71875C3.00809 0.369141 0 3.37723 0 7.08789V22.3171C0 26.0277 3.00809 29.0358 6.71875 29.0358H21.9479C25.6586 29.0358 28.6667 26.0277 28.6667 22.3171V7.08789C28.6667 3.37723 25.6586 0.369141 21.9479 0.369141Z" fill="url(#paint0_radial_522_980)"/>
<path d="M21.9479 0.369141H6.71875C3.00809 0.369141 0 3.37723 0 7.08789V22.3171C0 26.0277 3.00809 29.0358 6.71875 29.0358H21.9479C25.6586 29.0358 28.6667 26.0277 28.6667 22.3171V7.08789C28.6667 3.37723 25.6586 0.369141 21.9479 0.369141Z" fill="url(#paint1_radial_522_980)"/>
<path d="M14.3342 3.50464C11.293 3.50464 10.9113 3.51796 9.71694 3.57227C8.52481 3.62692 7.71106 3.8156 6.9991 4.09253C6.2625 4.37852 5.63776 4.76116 5.01538 5.38376C4.39244 6.00625 4.00981 6.63099 3.72292 7.36725C3.44521 8.07944 3.2563 8.89352 3.20267 10.0851C3.14925 11.2796 3.13525 11.6614 3.13525 14.7027C3.13525 17.7439 3.14869 18.1244 3.20289 19.3188C3.25776 20.5109 3.44644 21.3247 3.72314 22.0366C4.00936 22.7732 4.392 23.398 5.0146 24.0203C5.63687 24.6433 6.2616 25.0268 6.99764 25.3128C7.71016 25.5897 8.52403 25.7784 9.71593 25.8331C10.9104 25.8874 11.2918 25.9007 14.3328 25.9007C17.3743 25.9007 17.7548 25.8874 18.9492 25.8331C20.1413 25.7784 20.956 25.5897 21.6685 25.3128C22.4047 25.0268 23.0286 24.6433 23.6507 24.0203C24.2737 23.398 24.6562 22.7732 24.9432 22.037C25.2184 21.3247 25.4075 20.5107 25.4635 19.319C25.5171 18.1246 25.5311 17.7439 25.5311 14.7027C25.5311 11.6614 25.5171 11.2798 25.4635 10.0853C25.4075 8.89319 25.2184 8.07955 24.9432 7.36758C24.6562 6.63099 24.2737 6.00625 23.6507 5.38376C23.0279 4.76093 22.405 4.3783 21.6678 4.09264C20.9539 3.8156 20.1397 3.62681 18.9476 3.57227C17.7531 3.51796 17.3728 3.50464 14.3307 3.50464H14.3342ZM13.3296 5.52262C13.6278 5.52217 13.9605 5.52262 14.3342 5.52262C17.3241 5.52262 17.6784 5.53337 18.8591 5.587C19.9509 5.63695 20.5435 5.81936 20.9383 5.97266C21.4609 6.17557 21.8334 6.41822 22.2251 6.81026C22.6171 7.20219 22.8596 7.57542 23.0631 8.09802C23.2164 8.49219 23.399 9.08478 23.4487 10.1766C23.5024 11.3571 23.514 11.7116 23.514 14.7001C23.514 17.6886 23.5024 18.0432 23.4487 19.2236C23.3988 20.3154 23.2164 20.908 23.0631 21.3023C22.8602 21.8249 22.6171 22.197 22.2251 22.5887C21.8332 22.9806 21.4611 23.2232 20.9383 23.4262C20.544 23.5802 19.9509 23.7621 18.8591 23.8121C17.6787 23.8657 17.3241 23.8773 14.3342 23.8773C11.3441 23.8773 10.9897 23.8657 9.80932 23.8121C8.71753 23.7617 8.12493 23.5793 7.72987 23.426C7.20738 23.2229 6.83404 22.9804 6.44211 22.5885C6.05018 22.1965 5.80764 21.8242 5.60417 21.3014C5.45087 20.9071 5.26823 20.3145 5.21851 19.2227C5.16488 18.0422 5.15413 17.6877 5.15413 14.6973C5.15413 11.7069 5.16488 11.3543 5.21851 10.1738C5.26846 9.08198 5.45087 8.48939 5.60417 8.09466C5.80719 7.57206 6.05018 7.19883 6.44222 6.8069C6.83426 6.41498 7.20738 6.17232 7.72998 5.96896C8.12471 5.81499 8.71753 5.63303 9.80932 5.58286C10.8423 5.53616 11.2427 5.52217 13.3296 5.51982V5.52262ZM20.3116 7.38192C19.5698 7.38192 18.9679 7.98325 18.9679 8.72522C18.9679 9.46708 19.5698 10.069 20.3116 10.069C21.0535 10.069 21.6554 9.46708 21.6554 8.72522C21.6554 7.98336 21.0535 7.38147 20.3116 7.38147V7.38192ZM14.3342 8.95198C11.1585 8.95198 8.5836 11.5268 8.5836 14.7027C8.5836 17.8785 11.1585 20.4521 14.3342 20.4521C17.51 20.4521 20.084 17.8785 20.084 14.7027C20.084 11.5269 17.5098 8.95198 14.334 8.95198H14.3342ZM14.3342 10.97C16.3956 10.97 18.0669 12.641 18.0669 14.7027C18.0669 16.7641 16.3956 18.4354 14.3342 18.4354C12.2728 18.4354 10.6016 16.7641 10.6016 14.7027C10.6016 12.641 12.2726 10.97 14.3342 10.97Z" fill="white"/>
</g>
<defs>
<radialGradient id="paint0_radial_522_980" cx="0" cy="0" r="1" gradientUnits="userSpaceOnUse" gradientTransform="translate(7.61458 31.2437) rotate(-90) scale(28.4108 26.4243)">
<stop stop-color="#FFDD55"/>
<stop offset="0.1" stop-color="#FFDD55"/>
<stop offset="0.5" stop-color="#FF543E"/>
<stop offset="1" stop-color="#C837AB"/>
</radialGradient>
<radialGradient id="paint1_radial_522_980" cx="0" cy="0" r="1" gradientUnits="userSpaceOnUse" gradientTransform="translate(-4.80178 2.43415) rotate(78.681) scale(12.6998 52.3489)">
<stop stop-color="#3771C8"/>
<stop offset="0.128" stop-color="#3771C8"/>
<stop offset="1" stop-color="#6600FF" stop-opacity="0"/>
</radialGradient>
<clipPath id="clip0_522_980">
<rect width="28.6667" height="28.6667" fill="white"/>
</clipPath>
</defs>
</svg>
